<?xml version="1.0" standalone="no"?>
<!DOCTYPE svg PUBLIC "-//W3C//DTD SVG 20010904//EN"
 "http://www.w3.org/TR/2001/REC-SVG-20010904/DTD/svg10.dtd">
<svg version="1.0" xmlns="http://www.w3.org/2000/svg"
 width="500.000000pt" height="107.000000pt" viewBox="0 0 500.000000 107.000000"
 preserveAspectRatio="xMidYMid meet">

<g transform="translate(0.000000,107.000000) scale(0.100000,-0.100000)"
fill="#FFFFFF" stroke="none">
<path d="M1090 890 l0 -121 -32 23 c-24 17 -50 24 -99 26 -123 7 -193 -46
-225 -169 -35 -136 3 -290 86 -345 77 -51 196 -44 265 17 l33 29 6 -35 7 -35
85 0 84 0 -2 363 -3 362 -102 3 -103 3 0 -121z m-16 -254 c30 -39 30 -143 0
-183 -27 -36 -89 -44 -125 -14 -22 18 -24 26 -24 104 0 69 4 89 19 105 34 39
97 33 130 -12z"/>
<path d="M2749 968 c0 -2 -10 -37 -23 -78 l-22 -75 -42 -3 -42 -3 0 -64 0 -64
38 -3 37 -3 5 -167 c5 -159 6 -168 29 -192 39 -42 136 -57 244 -40 l37 7 0 57
0 57 -46 6 c-26 2 -50 11 -55 18 -5 8 -9 69 -9 137 l0 122 55 0 55 0 0 65 0
65 -55 0 -55 0 0 80 0 80 -75 0 c-41 0 -75 -1 -76 -2z"/>
<path d="M220 801 c-67 -24 -120 -77 -120 -121 l0 -30 95 0 c75 0 97 3 101 15
7 18 63 34 98 28 29 -6 56 -37 56 -64 0 -14 -14 -18 -77 -24 -217 -18 -280
-56 -290 -173 -3 -45 0 -63 16 -89 35 -56 64 -68 166 -68 78 0 97 4 145 27 54
27 55 27 75 8 11 -10 33 -23 48 -29 35 -14 127 -14 161 -1 24 9 26 15 26 65 0
51 -2 55 -24 55 -13 0 -28 6 -34 13 -5 6 -12 75 -14 152 -4 163 -14 186 -95
226 -69 33 -253 38 -333 10z m230 -321 c0 -63 -92 -111 -145 -76 -25 16 -31
40 -17 63 13 20 74 42 120 43 40 0 42 -1 42 -30z"/>
<path d="M1530 805 c-113 -35 -175 -138 -168 -276 6 -95 35 -159 91 -200 117
-85 324 -79 422 12 58 53 80 112 80 209 -1 131 -57 213 -174 255 -54 19 -189
19 -251 0z m175 -129 c27 -12 36 -23 46 -58 16 -62 6 -154 -21 -183 -28 -30
-73 -38 -116 -20 -42 17 -54 46 -54 133 0 76 14 111 50 129 32 16 53 16 95 -1z"/>
<path d="M2285 806 c-16 -7 -42 -25 -57 -40 l-27 -28 -7 36 -6 36 -84 0 -84 0
0 -365 0 -365 100 0 100 0 0 120 c0 66 2 120 5 120 3 0 19 -10 35 -22 36 -27
123 -35 184 -18 55 15 110 70 131 130 11 29 16 78 16 135 0 138 -35 216 -114
254 -50 24 -145 28 -192 7z m56 -136 c5 0 18 -9 29 -20 17 -17 20 -33 20 -105
0 -72 -3 -88 -20 -105 -22 -22 -78 -27 -110 -10 -37 20 -54 139 -28 196 13 28
63 57 86 49 8 -3 18 -5 23 -5z"/>
<path d="M3635 801 c-22 -10 -50 -28 -62 -40 -27 -26 -33 -26 -33 -2 0 46 -8
51 -91 51 l-79 0 0 -265 0 -265 100 0 100 0 0 173 c0 161 1 175 20 195 29 31
71 33 103 5 15 -14 17 -37 17 -195 l0 -178 100 0 100 0 0 169 c0 164 1 171 23
197 17 20 33 27 57 27 56 0 60 -15 60 -215 l0 -178 100 0 100 0 0 208 c0 198
-1 211 -23 252 -29 56 -74 80 -148 80 -64 0 -112 -17 -158 -56 l-31 -26 -22
27 c-43 55 -154 73 -233 36z"/>
<path d="M4476 800 c-105 -41 -160 -129 -160 -255 0 -122 51 -208 151 -251 58
-25 216 -30 286 -10 88 26 157 98 157 166 0 19 -6 20 -95 20 -59 0 -95 -4 -95
-10 0 -6 -11 -22 -25 -35 -19 -20 -34 -25 -73 -25 -61 0 -90 21 -101 73 l-9
37 200 0 200 0 -4 68 c-7 122 -68 202 -178 232 -60 17 -199 11 -254 -10z m212
-137 c42 -46 32 -53 -73 -53 -102 0 -110 5 -80 48 18 25 69 42 105 35 14 -3
35 -16 48 -30z"/>
<path d="M3070 380 l0 -100 105 0 105 0 0 100 0 100 -105 0 -105 0 0 -100z"/>
</g>
</svg>
